- 
http://www.Speed.Cd
 
http://www.Speed.Cd       the fast  and The Hottest Private Tracker on the net

Please Seed back to make the speed Faster!!
 ............ NFO .............
-[IMG]http://lookpic.com/O/i2/992/kzLSSATe.jpeg[/IMG]

[IMG]http://lookpic.com/O/i2/1789/WYBAL6oS.jpeg[/IMG]

[IMG]http://lookpic.com/O/i2/1998/ZHjWR9Ni.jpeg[/IMG]

Source:Tommiecook
 
http://www.imdb.com/title/tt0882977/

Format                           : AVI
Format/Info                      : Audio Video Interleave
File size                        : 1 015 MiB
Duration                         : 1h 46mn
Overall bit rate                 : 1 337 Kbps
Writing library                  : VirtualDub build 35390/release

Video
ID                               : 0
Format                           : MPEG-4 Visual
Format profile                   : Advanced Simple@L5
Format settings, BVOP            : Yes
Format settings, QPel            : No
Format settings, GMC             : No warppoints
Format settings, Matrix          : Default (H.263)
Muxing mode                      : Packed bitstream
Codec ID                         : XVID
Codec ID/Hint                    : XviD
Duration                         : 1h 46mn
Bit rate                         : 1 199 Kbps
Width                            : 640 pixels
Height                           : 302 pixels
Display aspect ratio             : 2.2:1
Frame rate                       : 25.000 fps
Color space                      : YUV
Chroma subsampling               : 4:2:0
Bit depth                        : 8 bits
Scan type                        : Progressive
Bits/(Pixel*Frame)               : 0.248
Stream size                      : 911 MiB (90%)
Writing library                  : XviD 1.2.1 (UTC 2008-12-04)

Audio
ID                               : 1
Format                           : MPEG Audio
Format version                   : Version 1
Format profile                   : Layer 3
Mode                             : Joint stereo
Mode extension                   : MS Stereo
Codec ID                         : 55
Codec ID/Hint                    : MP3
Duration                         : 1h 46mn
Bit rate mode                    : Constant
Bit rate                         : 128 Kbps
Channel(s)                       : 2 channels
Sampling rate                    : 48.0 KHz
Stream size                      : 97.2 MiB (10%)
Alignment                        : Split accross interleaves
Interleave, duration             : 40 ms (1.00 video frame)
Interleave, preload duration     : 500 ms
Writing library                  : LAME3.98.2

Workdone:
Fix video up to our liking and audio to 2 channel

[IMG]http://lookpic.com/O/i2/585/w2jdR9ss.jpeg[/IMG]

[IMG]http://lookpic.com/O/i2/256/AOj4ys3g.png[/IMG]
[IMG]http://lookpic.com/O/i2/1377/SYVEHpSn.png[/IMG]
[IMG]http://lookpic.com/O/i2/1034/dfCoKyU7.png[/IMG]
[IMG]http://lookpic.com/O/i2/1399/gzLY4p4.png[/IMG]
[IMG]http://lookpic.com/O/i2/1910/dMa7gQgq.png[/IMG]
[IMG]http://lookpic.com/O/i2/107/rFs1yeyZ.png[/IMG]

                                                                                                Greetz

        -=ViSiON=-=SceneLovers=-=PRESTiGE=-=SANTi=-=3LT0N=-=THC FAM=-=T0XiC=-=LKRG=-=ADTRG=-=FeelFree=-
                  -=FLAWL3SS=-=WBZ=-=BHRG=-=26K=-=NOVA=-=MAGNET=-=4PlayHD=-=LEGION=-=DiVERSiTY=-
                      -=HOPE=-=Hive-CM8=-=DTRG=-=ADTRG=-=BIDA=-=REFILL=-=INSPiRAL=-=AXED=-=HOPE=-
                                  -=ILLUMANTI=-=UNiQUE=-=RESiSTANCE=-=Rx=-=CrEwSaDe=-=ELEKTRI4KA=-
                                                                                     -=INFERNO=-
                                                        AND TO ALL OTHER P2P GROUPS PAST AND PRESENT